<svg width="17" height="22" viewBox="0 0 17 22" xmlns="http://www.w3.org/2000/svg"><title>hand</title><g stroke="#202020" fill="none" fill-rule="evenodd" stroke-linecap="round"><path d="M5.333 14.133v-11.8a1.333 1.333 0 0 1 2.667 0v7.334M5.4 19.4l-3.933-6.467a1.333 1.333 0 0 1 .6-1.8 1.333 1.333 0 0 1 1.8.6l1.466 2.4M8 7.667a1.333 1.333 0 1 1 2.667 0v2.666m0-2a1.333 1.333 0 1 1 2.666 0V11"/><path d="M5.4 19.4A3.367 3.367 0 0 0 8.267 21h4.4A3.333 3.333 0 0 0 16 17.667v-8a1.333 1.333 0 0 0-2.667 0"/></g></svg>