<svg xmlns="http://www.w3.org/2000/svg" xmlns:xlink="http://www.w3.org/1999/xlink" width="261" height="128" viewBox="0 0 261 128"><defs><path id="a" d="M681.87 1287.94c21.82 0 36.61 14.6 36.61 36.61v64.12c0 22.2-14.6 36.61-36.42 36.61-21.43 0-35.47-14.04-36.04-36.42h25.8c.76 7.02 3.8 11.38 10.24 11.38 6.45 0 10.43-3.41 10.43-11.2v-16.69c-3.79 3.04-9.67 4.75-14.98 4.75-19.35 0-32.25-14.42-32.25-33.77v-18.78c0-22 14.8-36.61 36.61-36.61zm-.19 65.63c6.83 0 10.81-4.55 10.81-12.14v-16.69c0-7.4-3.98-11.76-10.62-11.76-6.64 0-10.62 4.36-10.62 11.76v16.7c0 7.58 3.8 12.13 10.43 12.13zm87.64-65.63c21.82 0 36.61 14.6 36.61 36.61v64.12c0 22.2-14.6 36.61-36.42 36.61-21.43 0-35.47-14.04-36.04-36.42h25.8c.76 7.02 3.8 11.38 10.24 11.38 6.45 0 10.43-3.41 10.43-11.2v-16.69c-3.79 3.04-9.67 4.75-14.98 4.75-19.35 0-32.25-14.42-32.25-33.77v-18.78c0-22 14.8-36.61 36.61-36.61zm-.19 65.63c6.83 0 10.81-4.55 10.81-12.14v-16.69c0-7.4-3.98-11.76-10.62-11.76-6.64 0-10.62 4.36-10.62 11.76v16.7c0 7.58 3.8 12.13 10.43 12.13zm65.83-3.79c-12.52 0-20.5-7.2-20.5-20.87V1309c0-13.66 7.98-21.06 20.5-21.06 12.33 0 20.3 7.4 20.3 21.06v19.91c0 13.66-7.97 20.87-20.3 20.87zm-18.4 73.22l91.43-132.78h17.07L833.63 1423zm18.4-86.69c3.6 0 5.12-1.7 5.12-7.02v-20.67c0-5.5-1.52-7.21-5.12-7.21s-5.32 1.7-5.32 7.2v20.68c0 5.32 1.71 7.02 5.32 7.02zm68.48 88.4c-12.52 0-20.5-7.2-20.5-20.87v-19.91c0-13.66 7.98-21.06 20.5-21.06 12.33 0 20.3 7.4 20.3 21.06v19.91c0 13.66-7.97 20.87-20.3 20.87zm0-13.47c3.6 0 5.12-1.7 5.12-7.02v-20.67c0-5.5-1.52-7.21-5.12-7.21s-5.32 1.7-5.32 7.2v20.68c0 5.32 1.71 7.02 5.32 7.02z"/></defs><g clip-path="url(#clip-A5BC3A11-9BA8-4C26-9815-5DAB91209FA6)" transform="translate(-645 -1287)"><use fill="#f5f5f5" xlink:href="#a"/></g></svg>