<svg width="14" height="10" viewBox="0 0 14 10" xmlns="http://www.w3.org/2000/svg"><title>blog</title><path d="M12 2v6.125c0 .483.448.875 1 .875s1-.392 1-.875V2h-2zm-1.333 6.636V0H0v8.636C0 9.39.597 10 1.333 10H12c-.736 0-1.333-.61-1.333-1.364zm-5.334-.863H1.778V3.227h3.555v4.546zm3.556 0H6.667a.45.45 0 0 1-.445-.455.45.45 0 0 1 .445-.454h2.222a.45.45 0 0 1 .444.454.45.45 0 0 1-.444.455zm0-1.818H6.667a.45.45 0 0 1-.445-.455.45.45 0 0 1 .445-.455h2.222a.45.45 0 0 1 .444.455.45.45 0 0 1-.444.455zm0-1.819H6.667a.45.45 0 0 1-.445-.454.45.45 0 0 1 .445-.455h2.222a.45.45 0 0 1 .444.455.45.45 0 0 1-.444.454zm0-1.818H1.778a.45.45 0 0 1-.445-.454.45.45 0 0 1 .445-.455h7.11a.45.45 0 0 1 .445.455.45.45 0 0 1-.444.454z" fill="#FF334C"/></svg>