<svg width="13" height="15" viewBox="0 0 13 15" xmlns="http://www.w3.org/2000/svg"><title>present</title><g fill-rule="nonzero" fill="#FF334C"><path d="M10.818 4.405c.724-.655.977-1.7.636-2.626A2.324 2.324 0 0 0 9.286.239a2.162 2.162 0 0 0-1.811.88A6.515 6.515 0 0 0 6.5 3.071a6.515 6.515 0 0 0-.975-1.952 2.139 2.139 0 0 0-1.81-.88 2.324 2.324 0 0 0-2.17 1.54 2.422 2.422 0 0 0 .637 2.626c.627.571 1.927.976 2.925 1.238v2.69h2.786v-2.69c.998-.262 2.298-.667 2.925-1.238zM8.195 1.738h.023a1.244 1.244 0 0 1 1.068-.548 1.394 1.394 0 0 1 1.309.92 1.453 1.453 0 0 1-.38 1.58c-.581.524-2.183.977-3.204 1.191.162-1.238.766-2.667 1.184-3.143zM2.32 2.62c0-.789.624-1.429 1.393-1.429a1.22 1.22 0 0 1 1.068.524h.023c.418.476 1.022 1.905 1.184 3.143-1.021-.238-2.623-.667-3.203-1.19a1.445 1.445 0 0 1-.465-1.048z"/><path d="M8.821 5.476H13v2.857H8.821V5.476zM0 5.476h4.179v2.857H0V5.476zm.929 3.81h3.25V15H.929V9.286zm7.892 0h3.25V15h-3.25V9.286zM5.107 9.286h2.786V15H5.107z"/></g></svg>