<svg width="18" height="17" viewBox="0 0 18 17" xmlns="http://www.w3.org/2000/svg"><title>thumb_up</title><path d="M15.286 9.333h.571c.631 0 1.143-.497 1.143-1.11 0-.614-.512-1.112-1.143-1.112H9.571c.383-1.64.574-3.318.572-5C10.143 1.497 9.63 1 9 1s-1.143.497-1.143 1.111c0 0-1.143 6.111-5.143 6.111H1v6.667h2.857C5 14.889 7.286 16 8.43 16h5.714c.631 0 1.143-.497 1.143-1.111s-.512-1.111-1.143-1.111h.571c.631 0 1.143-.498 1.143-1.111 0-.614-.512-1.111-1.143-1.111h.572c.63 0 1.143-.498 1.143-1.112 0-.613-.512-1.11-1.143-1.11" stroke="#202020" fill="none" fill-rule="evenodd" stroke-linecap="round"/></svg>