<?xml version="1.0" encoding="UTF-8"?>
<svg width="19px" height="20px" viewBox="0 0 19 20" version="1.1" xmlns="http://www.w3.org/2000/svg" xmlns:xlink="http://www.w3.org/1999/xlink">
    <!-- Generator: Sketch 47.1 (45422) - http://www.bohemiancoding.com/sketch -->
    <title>time</title>
    <desc>Created with Sketch.</desc>
    <defs></defs>
    <g id="Page-1" stroke="none" stroke-width="1" fill="none" fill-rule="evenodd" stroke-linecap="round">
        <g id="landing-readysolution" transform="translate(-560.000000, -212.000000)" stroke="#202020" stroke-width="0.880649941">
            <g id="time" transform="translate(561.000000, 213.000000)">
                <path d="M16.2837159,0.672496319 L16.2837159,4.03497791 L12.9605086,4.03497791 M8.97265978,18.4936488 C4.74292742,18.4932625 1.08786407,15.5040838 0.200491122,11.3196064 C-0.686881823,7.13512891 1.43444812,2.89186612 5.29169262,1.1357564 C9.14893712,-0.620353319 13.6944599,0.587653357 16.200968,4.03497791 M13.2878445,17.3766324 C12.5590204,17.7821243 11.7776859,18.0823931 10.9665842,18.2686987 M16.200968,14.794919 C15.7503433,15.4136167 15.2243308,15.9722821 14.6354051,16.4576662 M17.5435438,12.109305 C17.4035874,12.5656297 17.2280125,13.0099793 17.018477,13.4381577" id="Shape"></path>
                <ellipse id="Oval" cx="8.97265978" cy="9.41494846" rx="1" ry="1.00874448"></ellipse>
                <path d="M9.62434073,10.1752056 L12.9605086,12.7774301 M8.97265978,2.68998527 L8.97265978,8.40620398" id="Shape"></path>
            </g>
        </g>
    </g>
</svg>