<?xml version="1.0" encoding="UTF-8"?>
<svg width="20px" height="20px" viewBox="0 0 20 20" version="1.1" xmlns="http://www.w3.org/2000/svg" xmlns:xlink="http://www.w3.org/1999/xlink">
    <!-- Generator: Sketch 47.1 (45422) - http://www.bohemiancoding.com/sketch -->
    <title>user</title>
    <desc>Created with Sketch.</desc>
    <defs></defs>
    <g id="Page-1" stroke="none" stroke-width="1" fill="none" fill-rule="evenodd" stroke-linecap="round">
        <g id="landing-readysolution" transform="translate(-560.000000, -293.000000)" stroke="#202020" stroke-width="0.880649941">
            <g id="user" transform="translate(561.000000, 294.019795)">
                <path d="M9.95134434,11.5495074 C8.9826294,11.2607697 8.80649941,10.7121681 8.80649941,10.3945567 L8.80649941,9.81708131 C9.38955502,9.27013116 9.79763994,8.5676899 9.98069933,7.79591751 C10.7145743,7.79591751 11.1548993,6.92970446 11.1548993,6.0634914 C11.1548993,5.83250125 11.1548993,4.90854066 10.5677993,4.90854066 C12.0355492,0.721844214 7.74971948,-0.866213057 4.69679969,1.15495074 C3.40517977,1.15495074 3.0529198,3.06061947 3.52259976,4.90854066 C2.9354998,4.90854066 2.9354998,5.83250125 2.9354998,6.0634914 C2.9354998,6.92970446 3.37582477,7.79591751 4.10969973,7.79591751 C4.29435033,8.56707436 4.70219103,9.26909524 5.28389965,9.81708131 L5.28389965,10.3945567 C5.28389965,10.856537 5.13712466,11.4340124 2.75936982,11.8959926 C0.381614975,12.3579729 0,14.4368843 0,14.4368843 L9.48166437,14.4368843" id="Shape"></path>
                <polyline id="Shape" points="15.264599 12.4157205 13.2097491 14.725622 12.0355492 13.5706712"></polyline>
                <ellipse id="Oval" cx="13.5032991" cy="13.5706712" rx="4.10969973" ry="4.0423276"></ellipse>
            </g>
        </g>
    </g>
</svg>