<svg width="19" height="20" viewBox="0 0 19 20" xmlns="http://www.w3.org/2000/svg"><title>time</title><g transform="translate(1 1)" stroke="#202020" stroke-width=".881" fill="none" fill-rule="evenodd" stroke-linecap="round"><path d="M16.284.672v3.363H12.96M8.973 18.494c-4.23 0-7.885-2.99-8.773-7.174-.887-4.185 1.234-8.428 5.092-10.184C9.149-.62 13.694.588 16.2 4.035m-2.913 13.342a8.849 8.849 0 0 1-2.321.892m5.234-3.474a9.087 9.087 0 0 1-1.566 1.663m2.909-4.349c-.14.457-.316.901-.526 1.33"/><ellipse cx="8.973" cy="9.415" rx="1" ry="1.009"/><path d="M9.624 10.175l3.337 2.602M8.973 2.69v5.716"/></g></svg>