<svg width="20" height="20" viewBox="0 0 20 20" xmlns="http://www.w3.org/2000/svg"><title>user</title><g transform="translate(1 1.02)" stroke="#202020" stroke-width=".881" fill="none" fill-rule="evenodd" stroke-linecap="round"><path d="M9.951 11.55c-.968-.29-1.145-.838-1.145-1.155v-.578a4.056 4.056 0 0 0 1.175-2.021c.734 0 1.174-.866 1.174-1.733 0-.23 0-1.154-.587-1.154C12.036.722 7.75-.866 4.697 1.155c-1.292 0-1.644 1.906-1.174 3.754-.588 0-.588.924-.588 1.154 0 .867.44 1.733 1.175 1.733a4.084 4.084 0 0 0 1.174 2.021v.578c0 .462-.147 1.039-2.525 1.501C.382 12.358 0 14.436 0 14.436h9.482m5.783-2.02l-2.055 2.31-1.174-1.155"/><ellipse cx="13.503" cy="13.571" rx="4.11" ry="4.042"/></g></svg>